<svg xmlns="http://www.w3.org/2000/svg" width="22" height="21" fill="none" viewBox="0 0 22 21">
  <path fill="#D9D9D9" d="M21.46 5.57L11.357.115a.751.751 0 00-.713 0L.543 5.57a.75.75 0 00.713 1.32l.815-.44L3.7 17.963c.214 1.215 1.308 2.062 2.658 2.062h9.282c1.352 0 2.445-.848 2.663-2.087l1.626-11.49.818.442c.364.193.82.06 1.017-.304a.752.752 0 00-.304-1.016zm-4.638 12.133c-.107.606-.703.822-1.18.822H6.36c-.48 0-1.075-.216-1.178-.798L3.48 5.69 11 1.628l7.522 4.06-1.7 12.015z"/>
  <path fill="#D9D9D9" d="M7.22 10.184a3.784 3.784 0 003.78 3.78 3.784 3.784 0 003.78-3.78A3.784 3.784 0 0011 6.404a3.784 3.784 0 00-3.78 3.78zm6.06 0a2.282 2.282 0 01-2.28 2.28 2.282 2.282 0 01-2.28-2.28A2.282 2.282 0 0111 7.904a2.282 2.282 0 012.28 2.28z"/>
</svg>
