<svg xmlns="http://www.w3.org/2000/svg" width="214" height="162" fill="none" viewBox="0 0 214 162">
  <path fill="url(#paint0_linear_1_23)" d="M43.007 25.487a23.91 23.91 0 0024.042 23.73l59.499-.385a32.106 32.106 0 0123.084 9.07 32.115 32.115 0 017.158 10.43 32.115 32.115 0 01.16 24.801 32.085 32.085 0 01-17.563 17.513 32.096 32.096 0 01-12.424 2.377l-59.498.385a23.883 23.883 0 00-23.73 24.039 23.884 23.884 0 0024.039 23.731l65.798-.426a79.874 79.874 0 0073.468-49.78 79.877 79.877 0 00-.396-61.126 79.857 79.857 0 00-43.503-42.943 79.857 79.857 0 00-30.602-5.882l-65.799.426a23.914 23.914 0 00-23.733 24.04zm89.594-14.016a69.417 69.417 0 01.899 138.831l-65.794.426A13.438 13.438 0 0154.3 137.379a13.438 13.438 0 0113.233-13.521l59.499-.385a42.549 42.549 0 0042.27-42.82 42.545 42.545 0 00-42.821-42.27l-59.498.384A13.433 13.433 0 0153.459 25.42a13.436 13.436 0 0113.349-13.522l65.793-.426z"/>
  <path fill="url(#paint1_linear_1_23)" d="M55.581 86.613l68.883-.446a5.226 5.226 0 003.637-8.943 5.227 5.227 0 00-3.705-1.506l-68.883.445A27.618 27.618 0 007.875 63.12 27.617 27.617 0 1055.58 86.613zm-44.307-4.938A17.168 17.168 0 1128.552 98.73a17.187 17.187 0 01-17.278-17.056z"/>
  <defs>
    <linearGradient id="paint0_linear_1_23" x1="128.662" x2="127.629" y1="160.784" y2="1.053" gradientUnits="userSpaceOnUse">
      <stop stop-color="#5F4540"/>
      <stop offset="1" stop-color="#EE2A4A"/>
    </linearGradient>
    <linearGradient id="paint1_linear_1_23" x1="65.413" x2="65.055" y1="108.942" y2="53.709" gradientUnits="userSpaceOnUse">
      <stop stop-color="#572317"/>
      <stop offset="1" stop-color="#EE2A4A"/>
    </linearGradient>
  </defs>
</svg>
